/* XPM */
static char *Screen_Shot_2023_04_30_at_11_46_50_PM_resized[] = {
/* columns rows colors chars-per-pixel */
"75 75 240 2 ",
"   c #10100B",
".  c #10100C",
"X  c #10100D",
"o  c #10100E",
"O  c #11100E",
"+  c #11110E",
"@  c #11110F",
"#  c #111110",
"$  c #111111",
"%  c #111114",
"&  c #1A1A17",
"*  c #191918",
"=  c #191919",
"-  c #1A1A18",
";  c #1A1A19",
":  c #19191A",
">  c #1A1A1A",
",  c #1A1A1B",
"<  c #1A1A1D",
"1  c #1A1A1E",
"2  c #1A1B1E",
"3  c #1B1B1F",
"4  c #131423",
"5  c #131425",
"6  c #141425",
"7  c #141426",
"8  c #141427",
"9  c #1B1B22",
"0  c #1B1B26",
"q  c #1B1C27",
"w  c #141529",
"e  c #15162F",
"r  c #1B1C29",
"t  c #1C1C2B",
"y  c #1B1B2D",
"u  c #1C1C2C",
"i  c #151631",
"p  c #151632",
"a  c #151633",
"s  c #151634",
"d  c #161737",
"f  c #171836",
"g  c #1C1D30",
"h  c #1C1D33",
"j  c #181836",
"k  c #181936",
"l  c #1D1E36",
"z  c #161739",
"x  c #1D1E39",
"c  c #1D1E3A",
"v  c #1D1E3B",
"b  c #1D1E3E",
"n  c #1E1F3F",
"m  c #2F2E2B",
"M  c #2F2F2B",
"N  c #302F2E",
"B  c #212131",
"V  c #2F3038",
"C  c #171943",
"Z  c #181944",
"A  c #1E1F45",
"S  c #1E1F46",
"D  c #191B4C",
"F  c #191B4F",
"G  c #191B50",
"H  c #1A1C53",
"J  c #1A1C54",
"K  c #1A1C55",
"L  c #1A1C56",
"P  c #1A1C58",
"I  c #1B1D58",
"U  c #1E2048",
"Y  c #1F2049",
"T  c #1F204A",
"R  c #1F204D",
"E  c #1F204E",
"W  c #1F214F",
"Q  c #1F2150",
"!  c #1F2152",
"~  c #30324F",
"^  c #202155",
"/  c #202257",
"(  c #202258",
")  c #20225A",
"_  c #21225D",
"`  c #1D1F63",
"'  c #1D1F64",
"]  c #1C1F65",
"[  c #1D1F65",
"{  c #1E2170",
"}  c #1F2175",
"|  c #1F2277",
" . c #1F227B",
".. c #1F227C",
"X. c #212362",
"o. c #212364",
"O. c #202266",
"+. c #212466",
"@. c #212467",
"#. c #222468",
"$. c #22256F",
"%. c #222570",
"&. c #232572",
"*. c #232575",
"=. c #232679",
"-. c #23267B",
";. c #24277F",
":. c #343777",
">. c #B7B47E",
",. c #D2CB5D",
"<. c #D9D257",
"1. c #D9D258",
"2. c #D9D25A",
"3. c #FFF74F",
"4. c #FFF94E",
"5. c #F7EF57",
"6. c #F5ED58",
"7. c #FEF551",
"8. c #FFF750",
"9. c #FFF651",
"0. c #FFF751",
"q. c #FFF850",
"w. c #D5CF6B",
"e. c #D9D360",
"r. c #D6D16A",
"t. c #D9D368",
"y. c #DBD568",
"u. c #D9D46B",
"i. c #D9D46C",
"p. c #242781",
"a. c #212587",
"s. c #242786",
"d. c #21258A",
"f. c #22268E",
"g. c #22268F",
"h. c #24278E",
"j. c #252888",
"k. c #252889",
"l. c #25288B",
"z. c #25288C",
"x. c #25288D",
"c. c #25298F",
"v. c #262993",
"b. c #262994",
"n. c #262995",
"m. c #262A98",
"M. c #262A9A",
"N. c #24289D",
"B. c #272B9F",
"V. c #252AA5",
"C. c #272BA4",
"Z. c #282BA5",
"A. c #282CA7",
"S. c #272BAF",
"D. c #282CA8",
"F. c #282CAA",
"G. c #282CAD",
"H. c #282DAF",
"J. c #383DA5",
"K. c #272CB0",
"L. c #282CB0",
"P. c #292DB1",
"I. c #292DB2",
"U. c #282CB4",
"Y. c #292DB4",
"T. c #282DB7",
"R. c #292EB6",
"E. c #292EB7",
"W. c #272BB9",
"Q. c #282DB9",
"!. c #292EB8",
"~. c #292EB9",
"^. c #292EBB",
"/. c #292EBC",
"(. c #2A2EBC",
"). c #292EBE",
"_. c #292EBF",
"`. c #2A2FBE",
"'. c #2A2FBF",
"]. c #5456A2",
"[. c #5F60AF",
"{. c #5F61B0",
"}. c #2A2EC0",
"|. c #2A2FC0",
" X c #2A2FC1",
".X c #2A2FC2",
"XX c #2A2FC3",
"oX c #2A2FC4",
"OX c #2B2FC5",
"+X c #292EC9",
"@X c #2A2FC9",
"#X c #282DCB",
"$X c #282DCC",
"%X c #2B30C5",
"&X c #2B30C6",
"*X c #2B30C7",
"=X c #2B30C8",
"-X c #2A30C9",
";X c #2B30C9",
":X c #2B30CA",
">X c #2B30CB",
",X c #2C31C9",
"<X c #2F33C9",
"1X c #2D32CA",
"2X c #2F34CA",
"3X c #2B30CC",
"4X c #2B31CC",
"5X c #2D32CC",
"6X c #373BC4",
"7X c #393DC2",
"8X c #393EC2",
"9X c #383DC4",
"0X c #3236CA",
"qX c #3539CB",
"wX c #353ACB",
"eX c #363ACB",
"rX c #3A3EC8",
"tX c #3A3FC8",
"yX c #3B3FC8",
"uX c #3B40C0",
"iX c #4347CC",
"pX c #4B4ECB",
"aX c #4C4FCF",
"sX c #4C50CF",
"dX c #5053CF",
"fX c #6165D3",
"gX c #6366D4",
"hX c #6367D4",
"jX c #6467D4",
"kX c #7174D7",
"lX c #7D7FD8",
"zX c #7E80D9",
"xX c #7E81D9",
"cX c #8083DA",
"vX c #9496DE",
"bX c #9799DD",
"nX c #989ADE",
"mX c #989BDE",
"MX c #A3A5E0",
"NX c #B2B3E4",
/* pixels */
"k j f h.5X1X1X1X1X1X1X1X1X1X1X1X1X1X1X1X1X1X1X1X1X1X2XwXeXeXeXeXeXeXeXeXeXeXeXeXeXeXeXeXeXeXeXeXeXeXeXeXeXeXeXeXeXeXeXeXeXeXeXeXeXeXeXeXeXeXeXeXeXqXpX",
"@ @ o { 3X;X;X;X;X;X;X;X;X;X;X;X;X;X;X;X;X;X;X;X;X;X;X-X-X-X-X-X-X-X-X-X-X-X-X-X-X-X-X-X-X-X-X-X-X-X-X-X-X-X-X-X-X-X-X-X-X-X-X-X-X-X-X-X-X-X-X-X-X@XrX",
"$ $ + ' >X;X;X;X;X;X;X;X;X;X;X;X;X;X;X;X;X;X;X;X;X;X;X;X;X;X;X;X;X;X;X;X;X;X;X;X;X;X;X;X;X;X;X;X;X;X;X;X;X;X;X;X;X;X;X;X;X;X;X;X;X;X;X;X;X;X;X;X;X@XyX",
"$ $ + [ >X;X;X;X;X;X;X;X;X;X;X;X;X;X;X;X;X;X;X;X;X;X;X;X;X;X;X;X;X;X;X;X;X;X;X;X;X;X;X;X;X;X;X;X;X;X;X;X;X;X;X;X;X;X;X;X;X;X;X;X;X;X;X;X;X;X;X;X;X@XyX",
"$ $ + [ >X;X;X;X;X;X;X;X;X;X;X;X;X;X;X;X;X;X;X;X;X;X;X;X;X;X;X;X;X;X;X;X;X;X;X;X;X;X;X;X;X;X;X;X;X;X;X;X;X;X;X;X;X;X;X;X;X;X;X;X;X;X;X;X;X;X;X;X;X@XyX",
"$ $ + [ >X;X;X;X;X;X;X;X;X;X;X;X;X;X;X;X;X;X;X;X;X;X;X;X;X;X;X;X;X;X;X;X;X;X;X;X;X;X;X;X;X;X;X;X;X;X;X;X;X;X;X;X;X;X;X;X;X;X;X;X;X;X;X;X;X;X;X;X;X@XyX",
"$ $ + [ >X;X;X;X;X;X;X;X;X;X;X:X3X>X;X=X=X=X=X=X=X=X=X=X=X=X=X=X=X=X=X=X=X=X=X=X=X=X=X=X=X=X=X=X=X=X=X=X=X=X=X=X=X=X;X:X3X>X;X;X;X;X;X;X;X;X;X;X;X@XtX",
"$ $ + [ >X;X;X;X;X;X;X;X;X>X=XI.c.%._ / / / / / / / / / / / / / / / / / / / / / / / / / / / / / / / / / / / / / / / ) @.p.Z..X>X:X;X;X;X;X;X;X;X;X@XyX",
"O O   ` >X;X;X;X;X;X;X:X:XA.X.g < - & & & & & & & & & & & & & & & & & & & & & & & & & & & & & & & & & & & & & & & & & & ; 0 T z..X>X;X;X;X;X;X;X;X@XyX",
"F F D a.:X;X;X;X;X;X:XXX-.u & - > > > > > > > > > > > > > > > > > > > > > > > > > > > > > > > > > > > > > > > > > > > > > ; & 2 ^ H.>X;X;X;X;X;X;X@XtX",
"*X*X*X=X;X;X;X;X;X:X'.o.< - > > > > > > > > > > > > > > > > > > > > > > > > > > > > > > > > > > > > > > > > > > > > > > > > > > - v C.>X;X;X;X;X;X@XiX",
";X;X;X;X;X;X;X;X;XOX#.> ; > > > > > > > > > > > > > > > > > > > > > > > > > > > > > > > > > > > > > > > > > > > > > > > > > > > > & c G.>X;X;X;X;X+XsX",
";X;X;X;X;X;X;X;X>Xk.3 ; > > > > > > > > > > > > > > > > > > > > > > > > > > > > > > > > > > > > > > > > > > > > > > > > > > > > > > & !  X:X;X;X;X+XsX",
"3X3X4X>X;X;X;X:XR.x - > > > > > > > > > > > > > > > > > > > > > > > > > > > > > > > > > > > > > > > > > > > > > > > > > > > > > > > > < j.>X;X;X;X+XsX",
"| | } N.:X;X;X>X;.> > > > > > > > > > > > > > > > > > > > > > > > > > > > > > > > > > > > > > > > > > > > > > > > > > > > > > > > > > & A |.:X;X;X+XsX",
"@ @ . ' >X;X;XXXY & > > > > > > > > > > > > > > > > > > > > > > > > > > > > > > > > > > > > > > > > > > > > > > > > > > > > > > > > > ; 9 B.>X;X;X+XsX",
"$ $ + [ >X;X>XH.t ; > > > > > > > > > > > > > > > > > > > > > > > > > > > > > > > > > > > > > > > > > > > > > > > > > > > > > > > > > > - =.3X;X;X+XsX",
"$ $ + ` >X;X3XM.3 > > > > > > > > > > > > > > > > > > > > > > > > > > > > > > > > > > > > > > > > > > > > > > > > > > > > > > > > > > > & _ ;X;X;X+XsX",
"$ $ O I ;X;X3Xx., > > > > > > > > > > > > > > > > > > > > > > > > > > > > > > > > > > > > > > > > > > > > > > > > > > > > > > > > > > > & Q &X;X;X+XsX",
"$ $ O L ;X;X3Xk.> > > > > > > > > > > > > > > > > > > > > > > > > > > > > > > > > > > > > > > > > > > > > > > > > > > > > > > > > > > > & R %X;X;X+XsX",
"$ $ O L ;X;X3Xk.> > > > > > > > > > > > > > > > > > > > > > > > > > > > > > > > > > > > > > > > > > > > > > > > > > > > > > > > > > > > & R OX;X;X+XsX",
"$ $ O L ;X;X3Xk.> > > > > > > > > > > > > > > > > > > > > > > > > > > > > > > > > > > > > > > > > > > > > > > > > > > > > > > > > > > > & R OX;X;X@XaX",
"@ @ . K ;X;X3Xk.> > > > > > > > > > > > > > > > > > > > > > > > > > > > > > > > > > > > > > > > > > > > > > > > > > > > > > > > > > > > & R OX;X;X@XsX",
"w w 8 ] ;X;X3Xk.> > > > > > > > > > > > > > > > > > > > > > > > > > > > > > > > > > > > > > > > > > > > > > > > > > > > > > > > > > > > & R OX;X;X@XaX",
"U.U.U./.;X;X3Xk.> > > > > > > > > > > > > > > > > > > > > > > > > > > > > > > > > > > > > > > > > > > > > > > > > > > > > > > > > > > > & R OX;X;X+XdX",
":X:X:X:X;X;X3Xk.> > > > > > > > > > > > > > > > > > > > > > > > > > > > > > > > > > > > > > > > > > > > > > > > > > > > > > > > > > > > & R OX;X;X+XfX",
";X;X;X;X;X;X3Xk.> > > > > > > > > > > > > > > > > > > > > > > > > > > > > > > > > > > > > > > > > > > > > > > > > > > > > > > > > > > > & R OX;X;X+XjX",
"4X4X4X>X;X;X3Xk.> > > > > > > > > > > > > > > > > > > > > > > > > > > > > > > > > > > > > > > > > > > > > > > > > > > > > > > > > > > > & R OX;X;X+XhX",
"g.g.f.V.;X;X3Xk.> > > > > > > > > > > > > > > > > > > > > > > > > > > > > > > > > > > > > > > > > > > > > > > > > > > > > > > > > > > > & R OX;X;X+XhX",
"% % $ P ;X;X3Xk.> > > > > > > > > > > > > > > > > > > > > > > > > > > > > > > > > > > > > > > > > > > > > > > > > > > > > > > > > > > > & R OX;X;X+XhX",
"$ $ + L ;X;X3Xk.> > > > > > > > > > > > > > > > > > > > > > > > > > > > > > > > > > > > > > > > > > > > > > > > > > > > > > > > > > > > & R OX;X;X+XhX",
"$ $ O L ;X;X3Xk.> > > > > > > > > > > > > > > > > > > > > > > > > > > > > > > > > > > > > > > > > > > > > > > > > > > > > > > > > > > > & R OX;X;X+XhX",
"$ $ O L ;X;X3Xk.> > > > > > > > > > > > > > > > > > > > > > > > > > > > > > > > > > > > > > > > > > > > > > > > > > > > > > > > > > > > & R OX;X;X+XhX",
"$ $ O L ;X;X3Xk.> > > > > > > > > > > > > > > > > > > > > > > > > > > > > > > > > > > > > > > > > > > > > > > > > > > > > > > > > > > > & R OX;X;X+XhX",
"$ $ O G *X;X3Xk.> > > > > > > > > > > > > > > > > > > > > > > > > > > > > > > > > > > > > > > > > > > > > > > > > > > > > > > > > > > > & R OX;X;X+XhX",
"$ $ O Z oX;X3Xk.> > > > > > > > > > > > > > > > > > > > > > > > > > > > > > > > > > > > > > > > > > > > > > > > > > > > > > > > > > > > & R OX;X;X+XhX",
"# # X C oX;X3Xk.> > > > > > > > > > > > > > > > > > > > > > > > > > > > > > > > > > > > > > > > > > > > > > > > > > > > > > > > > > > > & R OX;X;X+XgX",
"6 6 4 H oX;X3Xk.> > > > > > > > > > > > > > > > > > > > > > > > > > > > > > > > > > > > > > > > > > > > > > > > > > > > > > > > > > > > & R OX;X;X+XgX",
"K.K.K.T.=X;X3Xk.> > > > > > > > > > > > > > > > > > > > > > > > > > > > > > > > > > > > > > > > > > > > > > > > > > > > > > > > > > > > & R OX;X;X+XgX",
">X>X>X:X;X;X3Xk.> > > > > > > > > > > > > > > > > > > > > > > > > > > > > > > > > > > > > > > > > > > > > > > > > > > > > > > > > > > > & R OX;X;X+XkX",
";X;X;X;X;X;X3Xk.> > > > > > > > > > > > > > > > > > > > > > > > > > > > > > > > > > > > > > > > > > > > > > > > > > > > > > > > > > > > & R OX;X;X@XxX",
";X;X;X;X;X;X3Xk.> > > > > > > > > > > > > > > > > > > > > > > > > > > > > > > > > > > > > > > > > > > > > > > > > > > > > > > > > > > > & R OX;X;X@XzX",
";X;X;X;X;X;X3Xk.> > > > > > > > > > > > > > > > > > > > > > > > > > > > > > > > > > > > > > > > > > > > > > > > > > > > > > > > > > > > & R OX;X;X@XzX",
";X;X;X;X;X;X3Xk.> > > > > > > > > > > > > > > > > > > > > > > > > > > > > > > > > > > > > > > > > > > > > > > > > > > > > > > > > > > > & R OX;X;X@XzX",
";X;X;X;X;X;X3Xk.> > > > > > > > > > > > > > > > > > > > > > > > > > > > > > > > > > > > > > > > > > > > > > > > > > > > > > > > > > > > & R OX;X;X@XzX",
";X;X;X;X;X;X3Xk.> > > > > > > > > > > > > > > > > > > > > > > > > > > > > > > > > > > > > > > > > > > > > > > > > > > > > > > > > > > > & R OX;X;X@XzX",
";X;X;X;X;X;X3Xk.> > > > > > > > > > > > > > > > > > > > > > > > > > > > > > > > > > > > > > > > > > > > > > > > > > > > > > > > > > > > & R OX;X;X@XzX",
";X;X;X;X;X;X3Xk.> > > > > > > > > > > > > > > > > > > > > > > > > > > > > > > > > > > > > > > > > > > > > > > > > > > > > > > > > > > > & R OX;X;X@XzX",
";X;X;X;X;X;X3Xk.> > > > > > > > > > > > > > > > > > > > > > > > > > > > > > > > > > > > > > > > > > > > > > > > > > > > > > > > > > > > & R OX;X;X@XzX",
";X;X;X;X;X;X3Xk.> > > > > > > > > > > > > > > > > > > > > > > > > > > > > > > > > > > > > > > > > > > > > > > > > > > > > > > > > > > > & R OX;X;X@XzX",
":X:X:X:X;X;X3Xk.> > > > > > > > > > > > > > > > > > > > > > > > > > > > > > > > > > > > > > > > > > > > > > > > > > > > > > > > > > > > & R OX;X;X@XzX",
"/././.).=X;X3Xk.> > > > > > > > > > > > > > > > > > > > > > > > > > > > > > > > > > > > > > > > > > > > > > > > > > > > > > > > > > > > & R OX;X;X@XzX",
"s s p G ).:X3Xk.> > > > > > > > > > > > > > > > > > > > > > > > > > > > > > > > > > > > > > > > > > > > > > > > > > > > > > > > > > > > & R OX;X;X@XlX",
"@ @ X i ^.:X3Xk.> > > > > > > > > > > > > > > > > > > > > > > > > > > > > > > > > > > > > > > > > > > > > > > > > > > > > > > > > > > > & R OX;X;X@XcX",
"$ $ @ a /.:X3Xl., > > > > > > > > > > > > > > > > > > > > > > > > > > > > > > > > > > > > > > > > > > > > > > > > > > > > > > > > > > > & W &X;X;X,XvX",
"$ $ @ a /.:X3Xn.1 > > > > > > > > > > > > > > > > > > > > > > > > > > > > > > > > > > > > > > > > > > > > > > > > > > > > > > > > > > > & ( =X;X;X,XmX",
"$ $ @ a /.:X>XD.q ; > > > > > > > > > > > > > > > > > > > > > > > > > > > > > > > > > > > > > > > > > > > > > > > > > > > > > > > > > > - $.>X;X;X,XnX",
"$ $ @ a /.:X:X`.n - > > > > > > > > > > > > > > > > > > > > > > > > > > > > > > > > > > > > > > > > > > > > > > > > > > > > > > > > > > 2 b.3X;X;X,XnX",
"$ $ @ a /.:X;X:X$.- > > > > > > > > > > > > > > > > > > > > > > > > > > > > > > > > > > > > > > > > > > > > > > > > > > > > > > > > > - x ~.:X;X;X,XnX",
"$ $ @ a /.:X;X>XF.u ; > > > > > > > > > > > > > > > > > > > > > > > > > > > > > > > > > > > > > > > > > > > > > > > > > > > > > > > > ; *.:X;X;X;X,XnX",
"# # o p ^.:X;X;X;X&.> > > > > > > > > > > > > > > > > > > > > > > > > > > > > > > > > > > > > > > > > > > > > > > > > > > > > > > > - b E.:X;X;X;X,XnX",
".... .d.XX;X;X;X:X(.E - > > > > > > > > > > > > > > > > > > > > > > > > > > > > > > > > > > > > > > > > > > > > > > > > > > > > > - r m.>X;X;X;X;X,XnX",
"4X4X4X>X;X;X;X;X;X>XP.S - > > > > > > > > > > > > > > > > > > > > > > > > > > > > > > > > > > > > > > > > > > > > > > > > > > > - q k.;X;X;X;X;X;X,XnX",
";X;X;X;X;X;X;X;X;X;X>XY./ < - > > > > > > > > > > > > > > > > > > > > > > > > > > > > > > > > > > > > > > > > > > > > > > > ; - l v.;X;X;X;X;X;X;X,XnX",
":X:X:X:X;X;X;X;X;X;X;X>X.Xs.n 2 & & - - - - - - - - - - - - - - - - - - - - - - - - - - - - - - - - - = = = = = = = = * * : y O.L.>X;X;X;X;X;X;X;X,XnX",
").).).}.=X;X;X;X;X;X;X;X:X>X(.v.+.U x h h h h h h h h h h h h h h h h h h h h h h h h h h h h h h h B m M M M M M M N V ~ :.J.uX9X,X;X;X;X;X;X;X;X,XnX",
"z z d J _.:X;X;X;X;X;X;X;X;X:X3X:XXX(.!.E.E.E.E.E.E.E.E.E.E.E.E.E.E.E.E.E.E.E.E.E.E.E.E.E.E.E.E.E.W.].,.<.1.1.1.1.1.2.e.t.i.u.y.>.6X@X;X;X;X;X;X;X,XnX",
"@ @ X e Q.:X;X;X;X;X;X;X;X;X;X;X;X;X:X:X:X:X:X:X:X:X:X:X:X:X:X:X:X:X:X:X:X:X:X:X:X:X:X:X:X:X:X:X:X$X{.5.q.0.0.0.0.0.0.8.8.8.8.4.r.8X@X;X;X;X;X;X;X,XbX",
"$ $ # 7 K.>X;X;X;X;X;X;X;X;X;X;X;X;X;X;X;X;X;X;X;X;X;X;X;X;X;X;X;X;X;X;X;X;X;X;X;X;X;X;X;X;X;X;X;X#X[.6.9.7.7.7.7.7.7.7.7.7.7.3.w.7X@X;X;X;X;X;X;X<XMX",
"$ $ # 5 S.>X;X;X;X;X;X;X;X;X;X;X;X;X;X;X;X;X;X;X;X;X;X;X;X;X;X;X;X;X;X;X;X;X;X;X;X;X;X;X;X;X;X;X;X#X[.6.9.7.7.7.7.7.7.7.7.7.7.3.w.7X@X;X;X;X;X;X-X0XNX",
"$ $ # 5 S.>X;X;X;X;X;X;X;X;X;X;X;X;X;X;X;X;X;X;X;X;X;X;X;X;X;X;X;X;X;X;X;X;X;X;X;X;X;X;X;X;X;X;X;X#X[.6.9.7.7.7.7.7.7.7.7.7.7.3.w.7X@X;X;X;X;X;X-X0XNX",
"$ $ # 5 S.>X;X;X;X;X;X;X;X;X;X;X;X;X;X;X;X;X;X;X;X;X;X;X;X;X;X;X;X;X;X;X;X;X;X;X;X;X;X;X;X;X;X;X;X#X[.6.9.7.7.7.7.7.7.7.7.7.7.3.w.7X@X;X;X;X;X;X-X0XNX",
"$ $ # 5 S.>X;X;X;X;X;X;X;X;X;X;X;X;X;X;X;X;X;X;X;X;X;X;X;X;X;X;X;X;X;X;X;X;X;X;X;X;X;X;X;X;X;X;X;X#X[.6.9.7.7.7.7.7.7.7.7.7.7.3.w.7X@X;X;X;X;X;X-X0XNX",
"$ $ # 5 S.>X;X;X;X;X;X;X;X;X;X;X;X;X;X;X;X;X;X;X;X;X;X;X;X;X;X;X;X;X;X;X;X;X;X;X;X;X;X;X;X;X;X;X;X#X[.6.9.7.7.7.7.7.7.7.7.7.7.3.w.7X@X;X;X;X;X;X-X0XNX",
"$ $ # 5 S.>X;X;X;X;X;X;X;X;X;X;X;X;X;X;X;X;X;X;X;X;X;X;X;X;X;X;X;X;X;X;X;X;X;X;X;X;X;X;X;X;X;X;X;X#X[.6.9.7.7.7.7.7.7.7.7.7.7.3.w.7X@X;X;X;X;X;X-X0XNX"
};
