/* XPM */
static char *unnamed_resized[] = {
/* columns rows colors chars-per-pixel */
"75 75 232 2 ",
"   c None",
".  c #10100A",
"X  c #10100B",
"o  c #10100C",
"O  c #10100D",
"+  c #10110D",
"@  c #10100E",
"#  c #10110E",
"$  c #11110E",
"%  c #10100F",
"&  c #11110F",
"*  c #101010",
"=  c #111110",
"-  c #111111",
";  c #111112",
":  c #111113",
">  c #121212",
",  c #111114",
"<  c #111115",
"1  c #121115",
"2  c #111116",
"3  c #121116",
"4  c #121216",
"5  c #121217",
"6  c #121218",
"7  c #121219",
"8  c #12121B",
"9  c #12121C",
"0  c #13121C",
"q  c #12121D",
"w  c #13121D",
"e  c #13121E",
"r  c #131320",
"t  c #131321",
"y  c #131322",
"u  c #131323",
"i  c #131324",
"p  c #141324",
"a  c #141325",
"s  c #141326",
"d  c #141427",
"f  c #151427",
"g  c #121128",
"h  c #141328",
"j  c #151428",
"k  c #151429",
"l  c #14142A",
"z  c #14132E",
"x  c #15142D",
"c  c #15142E",
"v  c #15142F",
"b  c #151533",
"n  c #161534",
"m  c #161535",
"M  c #151537",
"N  c #161536",
"B  c #171636",
"V  c #161637",
"C  c #161638",
"Z  c #171638",
"A  c #171639",
"S  c #17163D",
"D  c #16153F",
"F  c #17163E",
"G  c #17163F",
"H  c #171641",
"J  c #171643",
"K  c #171644",
"L  c #181745",
"P  c #181746",
"I  c #191749",
"U  c #19174B",
"Y  c #19174C",
"T  c #1A184B",
"R  c #19184C",
"E  c #19184D",
"W  c #19184E",
"Q  c #19184F",
"!  c #1A1850",
"~  c #1A1853",
"^  c #1A1955",
"/  c #1A1956",
"(  c #1B1957",
")  c #1B1958",
"_  c #1B1959",
"`  c #1B195B",
"'  c #1B195C",
"]  c #1C1A62",
"[  c #1C1A63",
"{  c #1C1A64",
"}  c #1C1A66",
"|  c #1D1B66",
" . c #1D1B67",
".. c #1D1B69",
"X. c #1E1B69",
"o. c #1E1C6D",
"O. c #1E1C6E",
"+. c #1E1C6F",
"@. c #1E1C73",
"#. c #1F1C77",
"$. c #201D7A",
"%. c #201D7E",
"&. c #201E7F",
"*. c #F8F000",
"=. c #F9F100",
"-. c #FBF300",
";. c #FFF600",
":. c #FFF700",
">. c #FFF704",
",. c #FEF506",
"<. c #FFF900",
"1. c #FFFA00",
"2. c #FDF408",
"3. c #E7E118",
"4. c #EEE618",
"5. c #ECE41F",
"6. c #B6B04E",
"7. c #BCB450",
"8. c #BCB550",
"9. c #BAB355",
"0. c #201D80",
"q. c #201E80",
"w. c #211E80",
"e. c #211E81",
"r. c #211E82",
"t. c #211E83",
"y. c #211E85",
"u. c #211E86",
"i. c #211E87",
"p. c #221F88",
"a. c #221F8B",
"s. c #231F8C",
"d. c #23208E",
"f. c #23208F",
"g. c #232090",
"h. c #232092",
"j. c #232093",
"k. c #242095",
"l. c #242098",
"z. c #24219A",
"x. c #25219A",
"c. c #24219B",
"v. c #25219B",
"b. c #25219C",
"n. c #25219D",
"m. c #25219E",
"M. c #2521A0",
"N. c #2522A0",
"B. c #2522A1",
"V. c #2622A2",
"C. c #2622A3",
"Z. c #2622A4",
"A. c #2623A7",
"S. c #2723AA",
"D. c #2723AB",
"F. c #2723AC",
"G. c #2723AD",
"H. c #2723AE",
"J. c #2823AF",
"K. c #2823B0",
"L. c #2824B2",
"P. c #2824B3",
"I. c #2824B4",
"U. c #2924B4",
"Y. c #2824B5",
"T. c #2925B7",
"R. c #2925B9",
"E. c #2925BA",
"W. c #2925BB",
"Q. c #2A25BA",
"!. c #2925BD",
"~. c #2A25BC",
"^. c #2A25BD",
"/. c #2A26BC",
"(. c #2A26BD",
"). c #2A26BE",
"_. c #2A26BF",
"`. c #706B9A",
"'. c #716B9A",
"]. c #716C99",
"[. c #5B56AF",
"{. c #4E49B2",
"}. c #504BB6",
"|. c #504BB7",
" X c #6B66A0",
".X c #2A26C0",
"XX c #2A26C1",
"oX c #2B26C3",
"OX c #2A25C5",
"+X c #2B26C4",
"@X c #2B26C5",
"#X c #2B27C6",
"$X c #2B26C7",
"%X c #2B27C7",
"&X c #2B26CB",
"*X c #2C27C8",
"=X c #2C27C9",
"-X c #2C27CA",
";X c #2A25CE",
":X c #2C27CC",
">X c #2C27CD",
",X c #2C27CE",
"<X c #2C27CF",
"1X c #2D27CF",
"2X c #2F29CC",
"3X c #2C28CE",
"4X c #2D28CE",
"5X c #2C28CF",
"6X c #2D28CF",
"7X c #3833CA",
"8X c #2A25D3",
"9X c #2B26D3",
"0X c #2C27D0",
"qX c #2C27D1",
"wX c #2C27D3",
"eX c #2924D4",
"rX c #2A25D4",
"tX c #2D28D0",
"yX c #2D28D1",
"uX c #2E29D1",
"iX c #2F2BD1",
"pX c #2D28D2",
"aX c #2D28D3",
"sX c #2C28D4",
"dX c #2D28D4",
"fX c #2D28D5",
"gX c #2E28D4",
"hX c #2E28D5",
"jX c #2E29D5",
"kX c #2E29D6",
"lX c #2E29D7",
"zX c #302BD1",
/* pixels */
"g D J H [ $X:X:X:X:X:X:X:X:X:X:X:X:X:X:X:X:X:X:X:X:X:X>X0X0X0X0X0X0X0X0X0X0X0X0X0X0X0X0X0X0X0X0X0X0X0X0X0X0X0X0X0X0X0X0X0X0X0X0X0X0X0X0X0X0X0X0X0X0X&X",
"* - = $ m +XpXyXyXyXyXyXyXyXyXyXyXyXyXyXyXyXyXyXyXyXyXyXyXyXyXyXyXyXyXyXyXyXyXyXyXyXyXyXyXyXyXyXyXyXyXyXyXyXyXyXyXyXyXyXyXyXyXyXyXyXyXyXyXyXyXyXyXyX:X",
"* - - & k (.pXyXyXyXyXyXyXyXyXyXyXyXyXyXyXyXyXyXyXyXyXyXyXyXyXyXyXyXyXyXyXyXyXyXyXyXyXyXyXyXyXyXyXyXyXyXyXyXyXyXyXyXyXyXyXyXyXyXyXyXyXyXyXyXyXyXyXyX:X",
"* - - & k (.pXyXyXyXyXyXyXyXyXyXyXyXyXyXyXyXyXyXyXyXyXyXyXyXyXyXyXyXyXyXyXyXyXyXyXyXyXyXyXyXyXyXyXyXyXyXyXyXyXyXyXyXyXyXyXyXyXyXyXyXyXyXyXyXyXyXyXyX:X",
"* - - & k (.pXyXyXyXyXyXyXyXyXyXyXyXyXyXyXyXyXyXyXyXyXyXyXyXyXyXyXyXyXyXyXyXyXyXyXyXyXyXyXyXyXyXyXyXyXyXyXyXyXyXyXyXyXyXyXyXyXyXyXyXyXyXyXyXyXyXyXyX:X",
"* - - & k (.pXyXyXyXyXyXyXyXyXyXyXyXyXyXyXyXyXyXyXyXyXyXyXyXyXyXyXyXyXyXyXyXyXyXyXyXyXyXyXyXyXyXyXyXyXyXyXyXyXyXyXyXyXyXyXyXyXyXyXyXyXyXyXyXyXyXyXyX:X",
"* - - & k (.pXyXyXyXyXyXyXyXyXyXyXyXyXyXyXyXyXyXyXyXyXyXyXyXyXyXyXyXyXyXyXyXyXyXyXyXyXyXyXyXyXyXyXyXyXyXyXyXyXyXyXyXyXyXyXyXyXyXyXyXyXyXyXyXyXyXyXyX:X",
"* - - & k (.pXyXyXyXyXyXyXyXyXyXyXyXyXyXyXyXyXyXyXyXyXyXyXyXyXyXyXyXyXyXyXyXyXyXyXyXyXyXyXyXyXyXyXyXyXyXyXyXyXyXyXyXyXyXyXyXyXyXyXyXyXyXyXyXyXyXyXyX:X",
"O $ $ o f /.pXyXyXyXyXyXyXyXaXdXdXdXdXdXdXdXdXdXdXdXdXdXpXyXyXyXyXyXyXyXyXpXdXdXdXdXdXdXdXdXdXdXdXdXdXpXyXyXyXyXyXyXyXyXyXyXyXyXyXyXyXyXyXyXyXyXyXyX:X",
"K P P L ) oXpXyXyXyXyXyXyXtXL.V.C.C.C.C.C.C.C.C.C.C.C.Z.+XpXyXyXyXyXyXyXpX).C.C.C.C.C.C.C.C.C.C.C.C.V.R.yXyXyXyXyXyXyXyXyXyXyXyXyXyXyXyXyXyXyXyXyXyX:X",
"&X:X:X:X>XtXyXyXyXyXyXyXyX6X^ 1 6 6 6 6 6 6 6 6 6 6 6 0 n.dXyXyXyXyXyXyXdXt.5 6 6 6 6 6 6 6 6 6 6 6 1 O.aXyXyXyXyXyXyXyXyXyXyXyXyXyXyXyXyXyXyXyXyXyX,X",
"qXyXyXyXyXyXyXyXyXyXyXyXyX5XQ + - - - - - - - - - - = < v.dXyXyXyXyXyXyXgXq.& - - - - - - - - - - - + ..aXyXyXyXyXyXyXyXyXyXyXyXyXyXyXyXyXyXyXyXyXyX0X",
"0XyXyXyXyXyXyXyXyXyXyXyXyX5X! # - - - - - - - - - - - < v.dXyXyXyXyXyXyXgXw.= - - - - - - - - - - - & @.dXyXyXyXyXyXyXyXyXyXyXyXyXyXyXyXyXyXyXyXyXyX0X",
"sXgXgXgXdXyXyXyXyXyXyXyXyX5X! # - - - $ $ $ $ & - - - < v.dXyXyXyXyXyXyXgXw.= - - - & $ $ $ & - - - = w.gXyXyXyXyXyXyXyXyXyXyXyXyXyXyXyXyXyXyXyXyXyX0X",
"0.e.e.w.s.=XyXyXyXyXyXyXyX5X! # - = e { O.o.+.P = - - < v.dXyXyXyXyXyXyXgXw.= - - 5 ' O.o.O.' 5 - - = w.gXyXyXyXyXyXyXyXyXyXyXyXyXyXyXyXyXyXyXyXyXyX0X",
"% = = $ j (.pXyXyXyXyXyXyX5X! # - & c XXfXaXlXr.= - - < v.dXyXyXyXyXyXyXgXw.= - = e H.kXaXkXK.e = - = w.gXyXyXyXyXyXyXyXyXyXyXyXyXyXyXyXyXyXyXyXyXyX0X",
"* - - & k (.pXyXyXyXyXyXyX5X! # - & x _.pXyXgXw.= - - < v.dXyXyXyXyXyXyXgXw.= - = e G.aXyXaXH.e = - = w.gXyXyXyXyXyXyXyXyXyXyXyXyXyXyXyXyXyXyXyXyXyX0X",
"* - - & j ~.pXyXyXyXyXyXyX5X! # - & x _.pXyXgXw.= - - < v.dXyXyXyXyXyXyXgXw.= - = e G.aXyXaXH.e = - = w.gXyXyXyXyXyXyXyXyXyXyXyXyXyXyXyXyXyXyXyXyXyX0X",
"* - - = u U.aXyXyXyXyXyXyX5XQ # - & x _.pXyXgXw.= - - < v.dXyXyXyXyXyXyXgXw.= - = e G.aXyXaXH.e = - = w.gXyXyXyXyXyXyXyXyXyXyXyXyXyXyXyXyXyXyXyXyXyX0X",
"* - - = t L.aXyXyXyXyXyXyXtX) # - & x _.pXyXgXw.= - - < v.dXyXyXyXyXyXyXgXw.= - = e G.aXyXaXH.e = - = w.gXyXyXyXyXyXyXyXyXyXyXyXyXyXyXyXyXyXyXyXyXyX0X",
"* - - = t L.aXyXyXyXyXyXyXpX[ # - & x _.pXyXgXw.= - - < v.dXyXyXyXyXyXyXgXw.= - = e G.aXyXaXH.e = - = w.gXyXyXyXyXyXyXyXyXyXyXyXyXyXyXyXyXyXyXyXyXyX0X",
"* - - = t L.aXyXyXyXyXyXyXpX[ # - & x _.pXyXgXq.= - - < v.dXyXyXyXyXyXyXgXw.= - = e G.aXyXaXH.e = - = w.gXyXyXyXyXyXyXyXyXyXyXyXyXyXyXyXyXyXyXyXyXyX0X",
"@ & & $ r L.aXyXyXyXyXyXyXpX[ # - & x .XdXaXkXa.; - - < v.dXyXyXyXyXyXyXgXw.= - = e H.hXaXhXJ.e = - = w.gXyXyXyXyXyXyXyXyXyXyXyXyXyXyXyXyXyXyXyXyXyX0X",
"z v v c S T.aXyXyXyXyXyXyXpX[ # - & l S.W.E.^.u.: - - < v.dXyXyXyXyXyXyXgXw.= - = 9 z.~.E.~.c.q = - = w.gXyXyXyXyXyXyXyXyXyXyXyXyXyXyXyXyXyXyXyXyXyX0X",
"!..X.X.XXX4XyXyXyXyXyXyXyXpX[ # - - , s h h h t - - - < v.dXyXyXyXyXyXyXgXw.= - - ; u h h h i ; - - = w.gXyXyXyXyXyXyXyXyXyXyXyXyXyXyXyXyXyXyXyXyXyX0X",
"qXpXpXpXpXyXyXyXyXyXyXyXyXpX[ # - - - = & & & = - - - < v.dXyXyXyXyXyXyXgXw.= - - - = & & & = - - - = w.gXyXyXyXyXyXyXyXyXyXyXyXyXyXyXyXyXyXyXyXyXyX0X",
"0XyXyXyXyXyXyXyXyXyXyXyXyXpX[ # - - - - - - - - - - - < v.dXyXyXyXyXyXyXgXw.= - - - - - - - - - - - = w.gXyXyXyXyXyXyXyXyXyXyXyXyXyXyXyXyXyXyXyXyXyX0X",
"wXfXgXgXdXpXyXyXyXyXyXyXyXpX[ # - - - $ # # # # # # # ; x.dXyXyXyXyXyXyXgXw.= - - - $ # # # # # # # o &.gXyXyXyXyXyXyXyXyXyXyXyXyXyXyXyXyXyXyXyXyXyX0X",
"i.p.p.p.d.@XpXyXyXyXyXyXyXpX[ # - = w ` { [ [ [ [ [ [ } L.aXyXyXyXyXyXyXgXw.= - - 4 ~ { [ [ [ [ [ [ ] C.aXyXyXyXyXyXyXyXyXyXyXyXyXyXyXyXyXyXyXyXyXyX0X",
"* - - = t L.aXyXyXyXyXyXyXpX[ # - & x .XdXaXaXaXaXaXaXaXyXyXyXyXyXyXyXyXgXw.= - = e H.hXaXaXaXaXaXaXaXpXyXyXyXyXyXyXyXyXyXyXyXyXyXyXyXyXyXyXyXyXyXyX0X",
"* - - = t L.aXyXyXyXyXyXyXpX[ # - & x _.pXyXyXyXyXyXyXyXyXyXyXyXyXyXyXyXgXw.= - = e G.aXyXyXyXyXyXyXyXyXyXyXyXyXyXyXyXyXyXyXyXyXyXyXyXyXyXyXyXyXyXyX0X",
"* - - = t L.aXyXyXyXyXyXyXpX[ + - & x _.pXyXyXyXyXyXyXyXyXyXyXyXyXyXyXyXgXq.& - = w G.aXyXyXyXyXyXyXyXyXyXyXyXyXyXyXyXyXyXyXyXyXyXyXyXyXyXyXyXyXyXyX0X",
"* - - = t L.aXyXyXyXyXyXyXpX ., 6 2 b ^.6X3X3X6XyXyXyXyXyXyXyXyXyXyXyXyXdXt.2 6 5 i F.tX3X3X6XyXyXyXyXyXyXyXyXyXyXyXyXyXyXyXyXyXyXyXyXyXyXyXyXyXyXyX0X",
"* - - = t L.aXyXyXyXyXyXyXyXY.M.N.B.l._ E W U %.yXyXyXyXyXyXyXyXyXyXyXyXpX^.M.N.N.m.{ R W Y X.-XyXyXyXyXyXyXyXyXyXyXyXyXyXyXyXyXyXyXyXyXyXyXyXyXyXyX0X",
"* - - = w D.aXyXyXyXyXyXyXyXaXdXdXjX^.s o $ . / yXyXyXyXyXyXyXyXyXyXyXyXyXpXdXdXgX:XS X $ X B %XpXyXyXyXyXyXyXyXyXyXyXyXyXyXyXyXyXyXyXyXyXyXyXyXyXyX0X",
"* - - - 7 C.dXyXyXyXyXyXyXyXyXyXyXpXoXn & - # ) yXyXyXyXyXyXyXyXyXyXyXyXyXyXyXyXyX=XG $ - $ A %XpXyXyXyXyXyXyXyXyXyXyXyXyXyXyXyXyXyXyXyXyXyXyXyXyXyX0X",
"@ & & $ 3 V.dXyXyXyXyXyXyXyXyXyXyXpX@XN + = o ( yXyXyXyXyXyXyXyXyXyXyXyXyXyXyXyXyX=XF + = + Z %XpXyXyXyXyXyXyXyXyXyXyXyXyXyXyXyXyXyXyXyXyXyXyXyXyXyX0X",
"M C C V F F.aXyXyXyXyXyXyXyXyXyXyXpX%XI a d p | yXyXyXyXyXyXyXyXyXyXyXyXyXyXyXyXyX-X! a d a T *XyXyXyXyXyXyXyXyXyXyXyXyXyXyXyXyXyXyXyXyXyXyXyXyXyXyX0X",
"OX#X#X#X#X4XyXyXyXyXyXyXyXyXyXyXyXyXtX_.Q.Q.Q.oXyXyXyXyXyXyXyXyXyXyXyXyXyXyXyXyXyXtX.XQ.Q.Q._.tXyXyXyXyXyXyXyXyXyXyXyXyXyXyXyXyXyXyXyXyXyXyXyXyXyXyXqX",
"  pXpXpXpXyXyXyXyXyXyXyXyXyXyXyXyXyXyXpXaXpXaXpXyXyXyXyXyXyXyXyXyXyXyXyXyXyXyXyXyXyXpXaXpXaXpXyXyXyXyXyXyXyXyXyXyXyXyXyXyXyXyXyXyXyXyXyXyXyXyXyXyXyX0X",
"  yXyXyXyXyXyXyXyXyXyXyXyXyXyXyXyXyXyXyXyXyXyXyXyXyXyXyXyXyXyXyXyXyXyXyXyXyXyXyXyXyXyXyXyXyXyXyXyXyXyXyXyXyXyXyXyXyXyXyXyXyXyXyXyXyXyXyXyXyXyXyXyXyX<X",
"  yXyXyXyXyXyXyXyXyXyXyXyXyXyXyXyXyXyXyXyXyXyXyXyXyXyXyXyXyXyXyXyXyXyXyXyXyXyXyXyXyXyXyXyXyXyXyXyXyXyXyXyXyXyXyXyXyXyXyXyXyXyXyXyXyXyXyXyXyXyXyXyXyX0X",
"  yXyXyXyXyXyXyXyXyXyXyXyXyXyXyXyXyXyXyXyXyXyXyXyXyXyXyXyXyXyXyXyXyXyXyXyXyXyXyXyXyXyXyXyXyXyXyXyXyXyXyXyXyXyXyXyXyXyXyXyXyXyXyXyXyXyXyXyXyXyXyXyXyX0X",
"  yXyXyXyXyXyXyXyXyXyXyXyXyXyXyXyXyXyXyXyXyXyXyXyXyXyXyXyXyXyXyXyXyXyXyXyXyXyXyXyXyXyXyXyXyXyXyXyXyXyXyXyXyXyXyXyXyXyXyXyXyXyXyXyXyXyXyXyXyXyXyXyXyX0X",
"  yXyXyXyXyXyXyXyXyXyXyXyXyXyXyXyXyXyXyXyXyXyXyXyXyXyXyXyXyXyXyXyXyXyXyXyXyXyXyXyXyXyXyXyXyXyXyXyXyXyXyXyXyXyXyXyXyXyXyXyXyXyXyXyXyXyXyXyXyXyXyXyXyX0X",
"  yXyXyXyXyXyXyXyXyXyXyXyXyXyXyXyXyXyXyXyXyXyXyXyXyXyXyXyXyXyXyXyXyXyXyXyXyXyXyXyXyXyXyXyXyXyXyXyXyXyXyXyXyXyXyXyXyXyXyXyXyXyXyXyXyXyXyXyXyXyXyXyXyX0X",
"  yXyXyXyXyXyXyXyXyXyXyXyXyXyXyXyXyXyXyXyXyXyXyXyXyXyXyXyXyXyXyXyXyXyXyXyXyXyXyXyXyXyXyXyXyXyXyXyXyXyXyXyXyXyXyXyXyXyXyXyXyXyXyXyXyXyXyXyXyXyXyXyXyX0X",
"  yXyXyXyXyXyXyXyXyXyXyXyXyXyXyXyXyXyXyXyXyXyXyXyXyXyXyXyXyXyXyXyXyXyXyXyXyXyXyXyXyXyXyXyXyXyXyXyXyXyXyXyXyXyXyXyXyXyXyXyXyXyXyXyXyXyXyXyXyXyXyXyXyX0X",
"  yXyXyXyXyXyXyXyXyXyXyXyXyXyXyXyXyXyXyXyXyXyXyXyXyXyXyXyXyXyXyXyXyXyXyXyXyXyXyXyXyXyXyXyXyXyXyXyXyXyXyXyXyXyXyXyXyXyXyXyXyXyXyXyXyXyXyXyXyXyXyXyXyX0X",
"  yXyXyXyXyXyXyXyXyXyXyXyXyXyXyXyXyXyXyXyXyXyXyXyXyXyXyXyXyXyXyXyXyXyXyXyXyXyXyXyXyXyXyXyXyXyXyXyXyXyXyXyXyXyXyXyXyXyXyXyXyXyXyXyXyXyXyXyXyXyXyXyXyX0X",
"  aXdXdXdXpXyXyXyXyXyXyXyXyXyXyXyXyXyXyXyXyXyXyXyXyXyXyXyXyXyXyXyXyXyXyXyXyXyXyXyXyXyXyXyXyXyXyXyXyXyXyXyXyXyXyXyXyXyXyXyXyXyXyXyXyXyXyXyXyXyXyXyXyX0X",
"  A.A.A.A.oXpXyXyXyXyXyXyXyXyXyXyXyXyXyXyXyXyXyXyXyXyXyXyXyXyXyXyXyXyXyXyXyXyXyXyXyXyXyXyXyXyXyXyXyXyXyXyXyXyXyXyXyXyXyXyXyXyXyXyXyXyXyXyXyXyXyXyXyX0X",
"  8 8 8 9 j.dXyXyXyXyXyXyXyXyXyXyXyXyXyXyXyXyXyXyXyXyXyXyXyXyXyXyXyXyXyXyXyXyXyXyXyXyXyXyXyXyXyXyXyXyXyXyXyXyXyXyXyXyXyXyXyXyXyXyXyXyXyXyXyXyXyXyXyX<X",
"  - - = ; f.gXyXyXyXyXyXyXyXyXyXyXyXyXyXyXyXyXyXyXyXyXyXyXyXyXyXyXyXyXyXyXyXyXyXyXyXyXyXyXyXyXyXyXyXyXyXyXyXyXyXyXyXyXyXyXyXyXyXyXyXyXyXyXyXyXyXyXyX0X",
"  - - - ; g.gXyXyXyXyXyXyXyXyXyXyXyXyXyXyXyXyXyXyXyXyXyXyXyXyXyXyXyXyXyXyXyXyXyXyXyXyXyXyXyXyXyXyXyXyXyXyXyXyXyXyXyXyXyXyXyXyXyXyXyXyXyXyXyXyXyXyXyX  ",
"  - - - ; g.gXyXyXyXyXyXyXyXyXyXyXyXyXyXyXyXyXyXyXyXyXyXyXyXyXyXyXyXyXyXyXyXyXyXyXyXyXyXyXyXyXyXyXyXyXyXyXyXyXyXyXyXyXyXyXyXyXyXyXyXyXyXyXyXyXyXyXyX  ",
"  - - - ; g.gXyXyXyXyXyXyXyXyXyXyXyXyXyXyXyXyXyXyXyXyXyXyXyXyXyXyXyXyXyXyXyXyXyXyXyXyXyXyXyXyXyXyXyXyXyXyXyXyXyXyXyXyXyXyXyXyXyXyXyXyXyXyXyXyXyXyXyX  ",
"  - - - ; g.gXyXyXyXyXyXyXyXyXyXyXyXyXyXyXyXyXyXyXyXyXyXyXyXyXyXyXyXyXyXyXyXyXyXyXyXyXyXyXyXyXyXyXyXyXyXyXyXyXyXyXyXyXyXyXyXyXyXyXyXyXyXyXyXyXyXyXyX  ",
"  - - - ; g.gXyXyXyXyXyXyXyXyXyXyXyXyXyXyXyXyXyXyXyXyXyXyXyXyXyXyXyXyXyXyXyXyXyXyXyXyXyXyXyXyXyXyXyXyXyXyXyXyXyXyXyXyXyXyXyXyXyXyXyXyXyXyXyXyXyXyXyX  ",
"  = = = - f.gXyXyXyXyXyXyXyXyXyXyXyXyXyXyXyXyXyXyXyXyXyXyXyXyXyXyXyXyXyXyXyXyXyXyXyXyXyXyXyXyXyXyXyXyXyXyXyXyXyXyXyXyXyXyXyXyXyXyXyXyXyXyXyXyXyXyXyX  ",
"  y y y u k.dXyXyXyXyXyXyXyXyXyXyXyXyXyXyXyXyXyXyXyXyXyXyXyXyXyXyXyXyXyXyXyXyXyXyXyXyXyXyXyXyXyXyXyXyXyXyXyXyXyXyXyXyXyXyXyXyXyXyXyXyXyXyXyXyXyXyXyX  ",
"  P.P.P.I.%XyXyXyXyXyXyXyXyXyXyXyXyXyXyXyXyXyXyXyXyXyXyXyXyXyXyXyXyXyXyXyXyXyXyXyXyXyXyXyXyXyXyXyXyXyXyXyXyXyXyXyXyXyXyXyXyXyXyXyXyXyXyXyXyXyXyXyXyX  ",
"  pXaXaXaXpXyXyXyXyXyXyXyXyXyXyXyXyXyXyXyXyXyXyXyXyXyXyXyXyXyXyXyXyXyXyXyXyXyXyXyXyXyXyXyXyXyXyXyXyXyXyXyXyXyXyXyXyXyXyXyXyXyXyXyXyXyXyXyXyXyXyXyXyX  ",
"  tXyXyXyXyXyXyXyXyXyXyXyXyXyXyXyXyXyXyXyXyXyXyXyXyXyXyXyXyXyXyXyXyXyXyXyXyXyXyXyXyXyXyXyXyXyXyXyXyXyXyXyXyXyXyXyXyXyXyXyXyXyXyXyXyXyXyXyXyXyXyXyXyX  ",
"  dXdXdXdXpXyXyXyXyXyXyXyXyXyXyXyXyXyXyXyXyXyXyXyXyXyXyXyXyXyXyXyXyXyXyXyXyXyXyXyXyXyXyXyXyXyXyXyXyXyX8XeXeXeXeXeXeXeXeXeXeXeXeXrXqXyXyXyXyXyXyXyXyX  ",
"  b.b.b.b._.pXyXyXyXyXyXyXyXyXyXyXyXyXyXyXyXyXyXyXyXyXyXyXyXyXyXyXyXyXyXyXyXyXyXyXyXyXyXyXyXyXyXyXyXuX[.].`.`.`.`.`.`.`.`.`.`.'. X7XqXyXyXyXyXyXyXyX  ",
"  4 3 3 6 h.dXyXyXyXyXyXyXyXyXyXyXyXyXyXyXyXyXyXyXyXyXyXyXyXyXyXyXyXyXyXyXyXyXyXyXyXyXyXyXyXyXyXyXyXiX9.>.2.2.2.2.2.2.2.2.2.2.,.5.|.9XyXyXyXyXyXyXyX  ",
"  - - - = y.gXyXyXyXyXyXyXyXyXyXyXyXyXyXyXyXyXyXyXyXyXyXyXyXyXyXyXyXyXyXyXyXyXyXyXyXyXyXyXyXyXyXyXyXzX8.1.;.;.;.;.;.;.;.;.;.;.:.4.}.9XyXyXyXyXyXyXyX  ",
"  > - - & $.dXyXyXyXyXyXyXyXyXyXyXyXyXyXyXyXyXyXyXyXyXyXyXyXyXyXyXyXyXyXyXyXyXyXyXyXyXyXyXyXyXyXyXyXzX7.<.;.;.;.;.;.;.;.;.;.;.:.4.}.9XyXyXyXyXyXyXyX  ",
"  > - - & $.dXyXyXyXyXyXyXyXyXyXyXyXyXyXyXyXyXyXyXyXyXyXyXyXyXyXyXyXyXyXyXyXyXyXyXyXyXyXyXyXyXyXyXyXzX7.<.;.;.;.;.;.;.;.;.;.;.:.4.}.9XyXyXyXyXyXyXtX  ",
"  > - - & $.dXyXyXyXyXyXyXyXyXyXyXyXyXyXyXyXyXyXyXyXyXyXyXyXyXyXyXyXyXyXyXyXyXyXyXyXyXyXyXyXyXyXyXyXzX7.<.;.;.;.;.;.;.;.;.;.;.:.4.}.9XyXyXyXyXyXyXtX  ",
"  > - - & $.dXyXyXyXyXyXyXyXyXyXyXyXyXyXyXyXyXyXyXyXyXyXyXyXyXyXyXyXyXyXyXyXyXyXyXyXyXyXyXyXyXyXyXyXzX7.<.;.;.;.;.;.;.;.;.;.;.:.4.}.9XyXyXyXyXyXyXtX  ",
"  > - - & $.dXyXyXyXyXyXyXyXyXyXyXyXyXyXyXyXyXyXyXyXyXyXyXyXyXyXyXyXyXyXyXyXyXyXyXyXyXyXyXyXyXyXyXyXzX7.<.;.;.;.;.;.;.;.;.;.;.:.4.}.9XyXyXyXyXyXyXtX  ",
"  > - - & $.gXyXyXyXyXyXyXyXyXyXyXyXyXyXyXyXyXyXyXyXyXyXyXyXyXyXyXyXyXyXyXyXyXyXyXyXyXyXyXyXyXyXyXyXzX8.1.;.;.;.;.;.;.;.;.;.;.:.4.}.9XyXyXyXyXyXyXyX  ",
"  > - - % #.1X:X:X:X:X:X:X:X:X:X:X:X:X:X:X:X:X:X:X:X:X:X:X:X:X:X:X:X:X:X:X:X:X:X:X:X:X:X:X:X:X:X:X:X2X6.-.*.*.*.*.*.*.*.*.*.*.=.3.{.;X:X:X:X:X:X:X:X  "
};
