/* XPM */
static char *_494_v6_resized[] = {
/* columns rows colors chars-per-pixel */
"75 75 189 2 ",
"   c #000000",
".  c #010100",
"X  c #000001",
"o  c #010200",
"O  c #020200",
"+  c #020300",
"@  c #030300",
"#  c #030301",
"$  c #000002",
"%  c #000003",
"&  c #020202",
"*  c #040300",
"=  c #040400",
"-  c #040500",
";  c #050500",
":  c #060600",
">  c #060601",
",  c #050502",
"<  c #050503",
"1  c #050602",
"2  c #070702",
"3  c #070800",
"4  c #080800",
"5  c #080801",
"6  c #090A01",
"7  c #0A0A01",
"8  c #090802",
"9  c #080902",
"0  c #090902",
"q  c #0C0B01",
"w  c #0E0E02",
"e  c #0F0F02",
"r  c #111002",
"t  c #131302",
"y  c #151501",
"u  c #141402",
"i  c #171702",
"p  c #181802",
"a  c #191902",
"s  c #1D1D01",
"d  c #1D1D02",
"f  c #1E1E02",
"g  c #1F1F02",
"h  c #222201",
"j  c #202002",
"k  c #212002",
"l  c #212102",
"z  c #212202",
"x  c #222202",
"c  c #272701",
"v  c #262502",
"b  c #2A2A02",
"n  c #2B2B02",
"m  c #2E2E02",
"M  c #333302",
"N  c #373702",
"B  c #373802",
"V  c #383802",
"C  c #3B3B02",
"Z  c #3C3B02",
"A  c #3C3C01",
"S  c #3D3D01",
"D  c #3C3D02",
"F  c #414002",
"G  c #424202",
"H  c #484802",
"J  c #4A4A02",
"K  c #4D4D02",
"L  c #525202",
"P  c #535202",
"I  c #535302",
"U  c #575701",
"Y  c #575603",
"T  c #575802",
"R  c #5D5D02",
"E  c #5C5C03",
"W  c #606001",
"Q  c #656501",
"!  c #666602",
"~  c #686801",
"^  c #686802",
"/  c #696902",
"(  c #6A6A02",
")  c #6B6B02",
"_  c #6C6C03",
"`  c #6E6D02",
"'  c #6E6E02",
"]  c #717102",
"[  c #727102",
"{  c #747302",
"}  c #757502",
"|  c #777702",
" . c #7F7F01",
".. c #7C7D02",
"X. c #828301",
"o. c #808002",
"O. c #828202",
"+. c #828302",
"@. c #838302",
"#. c #868501",
"$. c #888802",
"%. c #898902",
"&. c #8E8E02",
"*. c #919102",
"=. c #979702",
"-. c #999901",
";. c #9A9A02",
":. c #9A9B02",
">. c #9B9B02",
",. c #9C9B02",
"<. c #9D9D01",
"1. c #9C9C02",
"2. c #A0A002",
"3. c #A1A102",
"4. c #A2A102",
"5. c #A2A202",
"6. c #A3A302",
"7. c #A4A402",
"8. c #A5A502",
"9. c #ADAD01",
"0. c #B3B301",
"q. c #B2B102",
"w. c #B5B502",
"e. c #BABA01",
"r. c #B8B802",
"t. c #BABA02",
"y. c #BBBB02",
"u. c #BCBB02",
"i. c #BFBF01",
"p. c #C0BF01",
"a. c #C0C002",
"s. c #C3C202",
"d. c #C4C401",
"f. c #C5C502",
"g. c #C8C701",
"h. c #C8C801",
"j. c #CACA02",
"k. c #CCCC01",
"l. c #CDCC02",
"z. c #D3D301",
"x. c #D2D202",
"c. c #D3D202",
"v. c #D5D501",
"b. c #D4D402",
"n. c #D6D502",
"m. c #DBDB01",
"M. c #DBDC02",
"N. c #DEDE01",
"B. c #DFDF01",
"V. c #DCDC02",
"C. c #DFDF02",
"Z. c #E2E201",
"A. c #E2E102",
"S. c #E3E302",
"D. c #E5E501",
"F. c #EBEB01",
"G. c #E8E902",
"H. c #E9E902",
"J. c #EEEE01",
"K. c #EDED02",
"L. c #EEEE02",
"P. c #F0F001",
"I. c #F3F201",
"U. c #F3F301",
"Y. c #F2F102",
"T. c #F3F202",
"R. c #F4F401",
"E. c #F5F501",
"W. c #F7F700",
"Q. c #F7F701",
"!. c #F8F800",
"~. c #F9F900",
"^. c #F8F801",
"/. c #F9F901",
"(. c #FAFA00",
"). c #FBFB00",
"_. c #FAFA01",
"`. c #F8F802",
"'. c #FCFB01",
"]. c #FCFC00",
"[. c #FDFD00",
"{. c #FDFD01",
"}. c #FEFE00",
"|. c #FFFE00",
" X c #FFFF00",
".X c #FEFE01",
"XX c #FFFF01",
"oX c #FEFE02",
"OX c #FFFF02",
/* pixels */
"                                                                                                                                                      ",
"                                                                                                                                                      ",
"                                                                                                                                                      ",
"                                                                    . @ = O                                                                           ",
"                                                              o = =   X X X X       . @ =                                                             ",
"                                                      . @ = o     X 4 C X.a.d   ; @     X           O O                                               ",
"                                                O = =       X g R 7.A. X XOXT       w K [ &   @ = +     .                                             ",
"                                        . @ = o       9 C o.f.^. X X X[.W. X6.a ' q.H. XXXz       $ g m $ .                                           ",
"                                            X $ j R 7.Z. X X X X).).[. X X X(.]. X X X!.XXE $ N | t.XXv.$ .                                           ",
"                                        q A +.h./.XX X X[.).].|. X X X X X|. X X).].}.}. Xm.z.XX XXX X{.c   O                                         ",
"                                        a.OXXX X X).).[. X X X X X X X X X X|.|. X X X X}. X X}.).].(.OX~   =                                         ",
"                                    :   3. XW.].|. X X X X X X X X X X X X X X X X X X X X[.[.|. X X].XX9.X @                                         ",
"                              @ =     X G  X]. X X X X X X X X X X X X X X X X X X X X X X X X X X X). XR.u   .                                       ",
"                                  X n ( y. X|. X X X X X X X X X X X X X X X X X X X X X X X X X X}. XXXb.v   O                                       ",
"                            , H *.c.XX X X|. X X X X X X X X X X X X X X X X X X X X X X X X X X].OX,.x $   .                                         ",
"                        .   0 K. X X X).]. X X X X X X X X X X X X X X X X X X X X X X X X X X X). X$.$ - .                                           ",
"                      . + 4 X >. X~.|. X X X X X X X X X X X X X X X X X X X X X X X X X X X X X[. XJ.6   .                                           ",
"                  . =   X X X / XX]. X X X X X X X X X X X X X X X X X X X X X X X X X X X X X|.XXD.5.e   .                                           ",
"                . X X > B ..s.T. X X X X X X X X X X X X X X X X X X X X X X X X X X X X X X[. X_ $ $ X .                                             ",
"              .   y 2.B.XX X X X X X X X X X X X X X X X X X X X X X X X X X X X X X X X X X(. X}   4                                                 ",
"              .   t /. X].).].|. X X X X X X X X X X X X X X X X X X X X X X X X X X X X X X X XM.X .                                                 ",
"              . - $ -. X). X X X X X X X X X X X X X X X X X X X X X X X X X X X X X X X X XL.y.) #                                                   ",
"            . $ $ f 4.OX]. X X X X X X X X X X X X X X X X X X X X X X X X X X X X X X|.|.XXD X X                                                     ",
"          O   m v..XOX{. X X X X X X X X X X X X X X X X X X X X X X X X X X X X X X X X~. XQ   4                                                     ",
"          O   g XX X]. X X X X X X X X X X X X X X X X X X X X X X X X X X X X X X X X X XOXp.  +                                                     ",
"            + $ t. X]. X X X X X X X X X X X X X X X X X X X X X X X X X X X X X X X X[.k.%.S                                                         ",
"            =   |  X). X X X X X X X X X X X X X X X X X X X X X X X X X X X X X X}. XE.y                                                             ",
"            @   N XX}.|. X X X X X X X X X X X X X X X X X X X X X X X X X X X X X|.!.OXU   :                                                         ",
"                $ z. X[. X X X X X X X X X X X X X X X X X X X X X X X X X X X X|. X XOX;.$ =                                                         ",
"            & l E m. X[. X X X X X X X X X X X X X X X X X X X X X X X X X X X|. XI.<.Y a   .                                                         ",
"        =   ] XXOX X}. X X X X X X X X X X X X X X X X X X X X X X X X X X X X[. XS.% $                                                               ",
"        @   K  X!.}. X X X X X X X X X X X X X X X X X X X X X X X X X X X X X}.!.OXJ X -                                                             ",
"        .   w H. X}. X X X X X X X X X X X X X X X X X X X X X X X X X X X X}. X X X[ X =                                                             ",
"          @   q. X]. X X X X X X X X X X X X X X X X X X X X X X X X X X X[. XC.^ b , X                                                               ",
"          ;   `  X). X X X X X X X X X X X X X X X X X X X X X X X X X X X[. Xl.%                                                                     ",
"              a ]. X|. X X X X X X X X X X X X X X X X X X X X X X X X X X[.]. XC   @                                                                 ",
"        X d T 6.(. X|. X X X X X X X X X X X X X X X X X X X X X X X X X[. XOXF.J   @                                                                 ",
"      O X a.OX X X|. X X X X X X X X X X X X X X X X X X X X X X X X X]. Xi.M 5 X +                                                                   ",
"      = X @. XW. X X X X X X X X X X X X X X X X X X X X X X X X X X X]. Xe.$ . X X o         .                                                       ",
"      @ X C  X[. X X X X X X X X X X X X X X X X X X X X X X X X X X X|. X'.i X M k X . o @ =                                                         ",
"      .   4 A. X[. X X X X X X X X X X X X X X X X X X X X X X X X X X X}.XXw.d.OX=.X :       1 <                                                     ",
"        * X 7. X). X X X X X X X X X X X X X X X X X X X X X X X X X X X X}. X X Xn.  X p P =.G.I X 3 .                                               ",
"        = X R  X). X X X X X X X X X X X X X X X X X X X X X X X X X X X X X].]. X_.&.r.U. X X X1.  X $ $                                             ",
"        o   g ^. X|. X X X X X X X X X X X X X X X X X X X X X X X X X X X X X X XXXOXXX X].~. XV.F #.j.c   : @                                       ",
"          o X f. X]. X X X X X X X X X X X X X X X X X X X X X X X X X X X X X X X X).].}. X X|.XXOX XOX~   $ X                                       ",
"          =   o. X). X X X X X X X X X X X X X X X X X X X X X X X X X X X X X X X X X X X X X X|.[.!.XX0.s | 2.7   - @                               ",
"          @   Z  X[. X X X X X X X X X X X X X X X X X X X X X X X X X X X X X X X X X X X X X X X X X X{.oX XOXN X   X .                             ",
"          .   8 Z. X[. X X X X X X X X X X X X X X X X X X X X X X X X X X X X X X X X X X X X X X X X X X XW. X .2 ! { $ O @ +                       ",
"            =   7. X). X X X X X X X X X X X X X X X X X X X X X X X X X X X X X X X X X X X X X X X X X|.|.|. XY.P. X_.t       o                     ",
"            =   R XX). X X X X X X X X X X X X X X X X X X X X X X X X X X X X X X X X X X X X X X X X X X X X|. X X!.XXJ $ L H X O                   ",
"            O   j /. X|. X X X X X X X X X X X X X X X X X X X X X X X X X X X X X X X X X X X X X X X X X X X X}.}.}. XN.B. Xx.X o                   ",
"              o $ g. X]. X X X X X X X X X X X X X X X X X X X X X X X X X X X X X X X X X X X X X X X X X X X X X X X}. X X}.`.h   O                 ",
"              = X O.XXW.].|. X X X X X X X X X X X X X X X X X X X X X X X X X X X X X X X X X X X X X X X X X X X X X X[.[.).OXW   =                 ",
"              @   A OX X X X|. X X X X X X X X X X X X X X X X X X X X X X X X X X X X X X X X X X X X X X X X X X X X X X X). X8.$ =                 ",
"              .   q a.3.G u. X]. X X X X X X X X X X X X X X X X X X X X X X X X X X X X X X X X X X X X X X X X X X X|.].).]. XQ.r   .               ",
"                        X (  X). X X X X X X X X X X X X X X X X X X X X X X X X X X X X X X X X X X X X X X X X X X X X X XXXB.2.y   .               ",
"                      :   n XX X|. X X X X X X X X X X X X X X X X X X X X X X X X X X X X X X X X X X X X X X X X X XT.s...B > X X .                 ",
"                          X c. X~.]. X X X X X X X X X X X X X X X X X X X X X X X X X X X X X X X X X X X X X X X].XX/ X X X   = .                   ",
"                        =   *.OX XXXXX X X X X X X X X X X X X X X X X X X X X X X X X X X X X X X X X X X X X X|.~. X:.X 4 + .                       ",
"                        @   H K.;./ T. X|. X X X X X X X X X X X X X X X X X X X X X X X X X X X X X X X X X].). X X XK.0   .                         ",
"                            , 0 X X s. X]. X X X X X X X X X X X X X X X X X X X X X X X X X X X X X X X X|. X XXXc.*.H ,                             ",
"                                4 X .. X). X X X X X X X X X X X X X X X X X X X X X X X X X X X X X X X|. Xy.( n X                                   ",
"                              . + X V XX].).]. X X X X X X X X X X X X X X X X X X X X X X X X X X X X X]. XG X     = @                               ",
"                                .   > B. X XOX{. X X X|.[.[. X X X X X X X X X X X X X X X X X X X X|.].W. X3.  :                                     ",
"                                  = X 2./.-.4.OX].].).}. X X}. X X X X|.|. X X X X X X X X X X[.).). X XXXOXa.                                        ",
"                                  . X y t $ f .X XXX XXXz.m. X}.}.].). X X|. X X X X X|.].).[. X XXX/.h.+.A q                                         ",
"                                    .     - $ v.XXt.| N $ E XX!. X X X].(. X X X[.).). X X X XZ.7.R j $ X                                             ",
"                                      . . . $ m g $       z XX XH.q.' a 6. XW.[. X X X^.f.o.C 9       o = @ .                                         ",
"                                            .     + = @   & [ K w       T OX X XA.7.R g X       = = O                                                 ",
"                                              O O           X     @ ;   d a.X.C 4 X     o = @ .                                                       ",
"                                                            = @ .       X X X X   = = o                                                               ",
"                                                                          O = @ .                                                                     ",
"                                                                                                                                                      ",
"                                                                                                                                                      ",
"                                                                                                                                                      "
};
