/* XPM */
static char *W_resized[] = {
/* columns rows colors chars-per-pixel */
"75 75 47 1 ",
"  c #000001",
". c #01030B",
"X c #020513",
"o c #02071C",
"O c #02081E",
"+ c #020721",
"@ c #020823",
"# c #020A2B",
"$ c #020D34",
"% c #030E3B",
"& c #02103E",
"* c #020F41",
"= c #021144",
"- c #02134C",
"; c #021454",
": c #02165A",
"> c #02185F",
", c #031761",
"< c #021964",
"1 c #011C6D",
"2 c #021D73",
"3 c #021D7A",
"4 c #01207E",
"5 c #031F83",
"6 c #012084",
"7 c #02228C",
"8 c #012494",
"9 c #02259B",
"0 c #0127A3",
"q c #0128A5",
"w c #0227A9",
"e c #0129AC",
"r c #012BB4",
"t c #012DBC",
"y c #012EC3",
"u c #012FC9",
"i c #0130C6",
"p c #0131CC",
"a c #0132D3",
"s c #0134DC",
"d c #0136E3",
"f c #0038E7",
"g c #0037EA",
"h c #0038EC",
"j c #0137F0",
"k c #0039F2",
"l c #003AF9",
/* pixels */
"-212411144qahgdr%.    .1214112141111>X            XO#+X                    ",
"8etttttttpsghfp&      -wetttytttttte9-                                    .",
"eshhhhhhhhhghseO      <pfhghhhhhghhfy<                                    o",
"rshggggfghgggae+    . 1pfghfgghggggfy2                                    O",
"rshgggggggggha0O      <afggggggggggdu1                                    O",
"idkhggfhgggghs0O      1sghkhhhjhjjjga1                                    X",
"egkkhhhhgggghse-    . %sklllllllllljs=                                     ",
"o2tghhhhggghhgu7;$.    =778888888885-                           @====&o    ",
"  .9fhggghggghfp07-                                            O7899874.   ",
" . -afggggggggggdt5              ..                            =tpsdsiq$   ",
"   =pdhggggggggghp8                                            -udjhksr&   ",
"   =idhggggggggggp8.                                           ;idhfhst=   ",
" . %udjjhhhghhgggp7.                                           ;pdjhgdt%   ",
"   #agkkkkkkkkkhga9X                                           %shjjhdr-   ",
"    3assddsddkkkhde<O                  XooX.                    6sjjhgi6%. ",
"     X+######=yggga06<o              X132221&                    O2sghdr72=",
".             ;sdggdtq:              :eryytw6X                     9dggfaq8",
"X             $idhghdy1            . 1pfhhha0o                     3sgggha0",
"O             $tdhgggu3              3afhhhaw+                     2aggghse",
"O             #tshggdy3              2aggghaq+                     2pfgghaq",
"X             #idjjjga3              2sghghsqo                     1aggghsr",
"              .rlkllkg;            . =djkkhse-                    X8aggjjgr",
"               #79w99,     $&&&$#     :wdhkgi6;#         $&&&&&&*-2rdggdu5#",
"                          ;878876*      ;aghfp97-       -878888880tsggd0X  ",
"                          8tsssar2       wdhggsr5       7tsssssssdghgda-   ",
"                         .9shghgp6.     .8sggghp8.     .8shhhhhhhhhggdt*   ",
"                         .9sggggp7.     .8ahggga9.     .9shffhhhgggggst*   ",
"                         .9shgggp7      .7shggha9      .9shhhhhhhhhhhdt%   ",
"                       . Xqsggghp8.     .9shgjgd9       9dhkkkkkjkkjjdp$   ",
" .XXXXXXXXXX..          o<rfggghsq;XXXXo>rshjjgu*       %adggfgggggggd5    ",
"&111112111211<$       .,6qaggggggp944126qaggdt-X         X#$$$$$$$$%$+     ",
"9wttttttttttr06.      -etsghgghgghsitttpsggda*                            .",
"eshhhhhhhhggga9X      <pdhghhggghghhhhhhhghsr+                            o",
"rshggggggggggawO      1pggggghggghgghgghgggseo                            O",
"rshggggggggggawo      <adhhggggggggggggggghawo                            o",
"ydjjjhjhkhkjjsrX    . 1pghhhhhjjhhggghgghhhaq+               .       .    X",
"rhklklllllklkj9      o7aghkkllllkkhggggggghde-                             ",
"o3899999999973X    o=3rdhggy9999phkggggghgggp7;$         $===========&X    ",
"                  o69tsggd0.    Xrfhggggggghdp07;       ;98889899898862X   ",
"  .  .            =raghgdu; .    <sgggghggggghdt6.      7issdsdssdsdsi0$   ",
"                . =pdhggdy*    . :pggggfhhhfhhhp8.     .8shhhhhhgghghsr%   ",
"                  -pdgghst*      :pdghghfhgfhhga8.     .8shhfhhfgggghst=   ",
"                . =idhghst&      ;pgjhjjhhghggga9.     .9shhhhhfhggghsr&   ",
"                  <yggggdt;      =sgljjjlkkjkjjd9       9fhhhhfhgggghft-   ",
"         XXoXXXXX&8agggggi6$.    .7sdddddddddddu%       %yghhhghghggggy5$. ",
"       X<441414349ydgggghdt72&     O##########@.         .*rfhggggggggdt71&",
".      >ertitiiipaghggghggfaw7X                            %afggggghhghdpe7",
"X      2pghhgghhhhggggggggghaw+                            @tdhggggggghhha0",
"O      3agggggggggggggggggghar@                            +rshggggggghghae",
"O      3agghggggghhgghggghghse@                            orshggggggggghae",
"o    . 3shkkhkhkkhhgghggghhkst+                            otfkhjjjjjjhggs0",
";      =djkllllllljjggghhhhkj9.                             8kklllllllljgde",
"8>&.    =55887788tghhggghgdr2X    @-=--&+        +==--&O    X<6777877wshhgp",
"pq7:             .0dhggggs8.     @8899976o      o7899884X             :sghf",
"hdt7.    .        ;sggggdp- .    -tpdddue=      %radddpe% .    ..     Xrdhg",
"gha8.             ;pfgghdy=      ;pfhhhdy-    . *ifghhst=             .qshg",
"ggp9X             ;idgggdt=      :pdgggsy;      =idgggst-             Xwshg",
"gga8.             -idgghst*      ;pdgghdt-      =uggggdy= .           .0shg",
"hha9X             :pgghkda& .    <pggghft>    . %sgjjjda%              qdhj",
"khde:oXXXXX.XXXX.$8pgghkg5      $8ahggggp6$.     8dgggd8.    ..XXX     -ahk",
"dhga94111111111138tdggs7$     $48tfhggggdr6<$     #$*%#     $111<<:.    o:u",
"agggspittrttrtttyadhgsw.     .8epfggghgghdpw5.             .7wrrtw9;      *",
"tdhghhhhgghhhgghjhggga5 .    Oeshgggghgghhga0o             oeahhgdy<      O",
"rdhggghhhggggggggggggu3      +rshghgggghhhgawO             orshggdp3      +",
"rdhggggggggggggggggggu3      OrsgggggggggggawO             Orshggdp2      O",
"tskkhkhhkhgggghghgghga3      Otsjjjjjhjjhkhsro             Xrdjjjgp3      X",
"rhllllllllkjhhggghkkgd;       wjlllklllllllj0               0jllljd-       ",
"@69909000edhhggggggsw:        O5990009090995O    o&==&&X    o39999:        ",
"          ;sghgggfa;                            X6888864X                  ",
"           rdggggsw. .                          &rpsssiq%    .             ",
"          .9sgggga9.                            =idhhhst=                  ",
"           9aggggp8.                            =idgggdt= .                ",
"           8ahggga8.                            =idhgjdy=                  ",
"          X0shhkgs7                             %agkkkda$ .                ",
"  .XXXXXXo<rdhhddp% .   .XX..XXXX.X.           . 8dddsd8                   "
};
