/* XPM */
static char *pngwing_com_resized[] = {
/* columns rows colors chars-per-pixel */
"75 75 36 1 ",
"  c None",
". c #0083CF",
"X c #0084CF",
"o c #0085CF",
"O c #0083D0",
"+ c #0083D1",
"@ c #0084D0",
"# c #0085D0",
"$ c #0084D1",
"% c #0085D1",
"& c #0086D0",
"* c #0087D0",
"= c #0086D1",
"- c #0087D1",
"; c #0085D2",
": c #0086D2",
"> c #0087D2",
", c #0088D0",
"< c #0088D1",
"1 c #0089D1",
"2 c #008AD1",
"3 c #0088D2",
"4 c #0089D2",
"5 c #008AD2",
"6 c #008BD2",
"7 c #008AD3",
"8 c #008BD3",
"9 c #008CD2",
"0 c #008DD2",
"q c #008CD3",
"w c #008DD3",
"e c #008ED3",
"r c #008CD4",
"t c #008DD4",
"y c #008ED4",
"u c #008FD4",
/* pixels */
"                                                                           ",
"                                                                           ",
"                                                                           ",
"                                                                           ",
"                                                                           ",
"                                                                           ",
"                                                                           ",
"                                                                           ",
"                                                                           ",
"                                                                           ",
"                                                                           ",
"                                                                           ",
"                                                                           ",
"                                                                           ",
"                                                                           ",
"                                                                           ",
"                                        +                                  ",
"                           1 @@ w*     o@=  $ .                            ",
"                                Oo#3  1<%o                                 ",
"                           q # e6#o@@@@OOo5q@@$9;                          ",
"                        @w O=q##@%       @@@#e#    $                       ",
"                        0@$6X@              @@@w@X                         ",
"                        #:6@                  @$4=  #                      ",
"                      qo,>@                     +@5 5                      ",
"                      @*#O                       ##-                       ",
"                    5@%=                          @#=                      ",
"                  X o@5                            @4$#                    ",
"                    O9@                             Ow#                    ",
"                - %o%#                              @X$                    ",
"                  t 5                                @8Xq                  ",
"                  @@@                                XXo#                  ",
"                O O7                                  @yX                  ",
"                  O4                                  X5@9                 ",
"                @<@#                                   &@                  ",
"               %XX=$                                   @=                  ",
"               %%$=                                    @5                  ",
"                3X4                                    @7                  ",
"                 O5                                    #2+                 ",
"                  2                                    @3$                 ",
"                  <                                    @*@                 ",
"                 @#                                    #o                  ",
"                #-o%                                   #   5               ",
"                @2O4                                   7. $9               ",
"                 7@3                                  O5@                  ",
"                o  o                                  &$#                  ",
"                8XqX9                                 6.w                  ",
"                   @o                                @#@%                  ",
"                  or@8                              #q$                    ",
"                    @$r                             <X# @                  ",
"                 X @6+@                            #@@6                    ",
"                     u@<                          #<@                      ",
"                      8@-                        @1@4  3                   ",
"                      +q@%                      4= 8##                     ",
"                     r  tOXq                  @6@$t                        ",
"                        @5#@#q              @6@@&yO@                       ",
"                      @    y@@@40         75X$ w                           ",
"                         w @:8$@@o#-31<-=.@@#5:@@                          ",
"                               58<@O@O@@@1q                                ",
"                             5 @@+     %#@.                                ",
"                                         3w                                ",
"                                                                           ",
"                                                                           ",
"                                                                           ",
"                                                                           ",
"                                                                           ",
"                                                                           ",
"                                                                           ",
"                                                                           ",
"                                                                           ",
"                                                                           ",
"                                                                           ",
"                                                                           ",
"                                                                           ",
"                                                                           ",
"                                                                           "
};
